ply
format ascii 1.0
element vertex 20
property float x
property float y
property float z
property uchar diffuse_red
property uchar diffuse_green
property uchar diffuse_blue
end_header
0.618171 -0.0139114 3.20287 0 255 0
0.378416 -0.00611983 4.4642 0 255 0
0.538952 -1.64217e-08 3.4388 0 255 0
0.468043 -8.93877e-09 3.63386 255 0 255
0.405303 -0.053169 3.82821 0 255 0
0.364965 -0.0228712 4.00389 0 255 0
0.713593 -0.0155557 3.00943 255 0 255
0.837896 0.00393508 2.77589 255 0 255
0.339795 0.00850116 4.20068 255 0 255
0.434188 -0.0143137 4.69867 255 0 255
0.525893 0.000769898 4.97299 255 0 255
0.651577 -0.0727465 5.16533 255 0 255
0.773324 -0.142565 5.35666 255 0 255
0.900532 -0.163385 5.58285 255 0 255
0.997228 -0.174745 5.82052 255 0 255
1.14286 -0.278954 6.03088 255 0 255
1.30758 -0.298204 6.23312 255 0 255
1.53435 -0.347817 6.49396 255 0 255
0.971811 -1.04858e-08 2.55029 255 0 255
1.043 -0.00868698 2.33147 255 0 255
