ply
format ascii 1.0
element vertex 19
property float x
property float y
property float z
property uchar diffuse_red
property uchar diffuse_green
property uchar diffuse_blue
end_header
0.439572 -1.02477e-08 1.16417 0 255 0
1.14448 -0.125932 0.471849 0 255 0
0.16966 0.0179599 2.15716 0 255 0
-0.0663747 0.00947089 3.13882 0 255 0
-0.155584 -0.0119441 4.22566 255 0 255
0.211446 0.149943 4.96765 255 0 255
0.631655 0.210521 5.87318 255 0 255
0.746752 -8.85703e-08 6.84795 255 0 255
0.653643 -0.438129 8.20247 255 0 255
-0.0688925 -0.437877 9.31841 255 0 255
-1.63283 -0.179458 10.3626 255 0 255
-2.8582 -0.0230797 11.5863 0 255 0
-4.02784 5.78077e-08 13.1185 255 0 255
-4.93682 0.154318 14.6302 0 255 0
-6.0642 0.362523 16.7638 0 255 0
1.58121 0.870324 -2.6035 255 0 255
-6.74616 0.292928 18.2349 255 0 255
1.67419 0.138208 -0.303869 255 0 255
1.67526 0.600095 -1.67359 255 0 255
