ply
format ascii 1.0
element vertex 20
property float x
property float y
property float z
property uchar diffuse_red
property uchar diffuse_green
property uchar diffuse_blue
end_header
-0.0865127 -0.0317215 2.35831 0 255 0
0.185197 0.00413043 3.41951 0 255 0
0.10461 -0.00406046 3.24192 0 255 0
0.0349808 -0.0327763 2.97771 0 255 0
-0.0158375 -0.0609105 2.78452 0 255 0
-0.0933618 -0.0286826 2.5655 0 255 0
-0.110347 -0.0434734 2.14753 255 0 255
-0.164199 -0.0220856 1.9607 255 0 255
-0.220627 4.39836e-08 1.76434 0 255 0
-0.185544 -0.0154075 1.51803 255 0 255
-0.15015 -0.00230845 1.30641 255 0 255
0.25867 -7.97332e-08 3.63774 255 0 255
0.30237 0.0299774 3.88213 0 255 0
0.307678 0.0365253 4.12993 255 0 255
0.380598 -0.000186873 4.38835 0 255 0
0.42553 0.0163319 4.61473 255 0 255
0.443474 0.0440562 4.85656 255 0 255
0.453763 6.07528e-09 5.09609 0 255 0
0.423028 -0.061951 5.28721 255 0 255
0.29799 -0.0926859 5.45744 255 0 255
