ply
format ascii 1.0
element vertex 20
property float x
property float y
property float z
property uchar diffuse_red
property uchar diffuse_green
property uchar diffuse_blue
end_header
2.02354 -0.311872 3.6483 0 255 0
1.5448 0.0141387 5.16474 0 255 0
2.0479 -0.372124 3.78438 0 255 0
2.0329 -0.430534 3.97572 255 0 255
1.96887 -0.418956 4.05678 0 255 0
1.83904 -0.284187 4.2353 255 0 255
1.75644 -0.165531 4.48727 255 0 255
1.66063 -0.0988697 4.71992 255 0 255
1.61092 -0.0401131 4.93265 0 255 0
1.49793 0.0278809 5.356 255 0 255
1.40672 -1.47051e-07 5.56332 255 0 255
1.39875 -0.00385496 5.79921 255 0 255
1.32532 0.00606423 6.05031 255 0 255
1.2543 -0.00537084 6.32225 255 0 255
1.20869 1.91984e-07 6.54806 255 0 255
1.19216 0.00212485 6.82046 255 0 255
1.17633 -7.21131e-08 7.061 255 0 255
1.13824 -0.0682898 7.30255 255 0 255
1.16855 -0.0504599 7.53023 255 0 255
1.24532 -0.0499374 7.79766 255 0 255
